<svg id="Layer_1" data-name="Layer 1" xmlns="http://www.w3.org/2000/svg" viewBox="0 0 951.96 367.92"><defs><style>.cls-1{fill:#606161;}</style></defs><title>MULINGA BRAND logo</title><path class="cls-1" d="M624,425.56c-1.85,1.22-3.72,2.42-5.57,3.66-9.79,6.52-17.39,15.25-24.69,24.3-4.59,5.68-9.16,11.39-14.07,16.79a50.2,50.2,0,0,1-17.41,12c.48-1.19.88-2,1.16-2.92,2-6.23,3.87-12.5,5.88-18.72,4.14-12.83,11-23.74,22.42-31.35,6.08-4,12.87-6.4,19.86-8.13,9.62-2.39,19.29-4.55,29-6.79a10.24,10.24,0,0,1,2.57-.38,7.7,7.7,0,0,1,2,.61,6,6,0,0,1-.94,1.69c-1.25,1.12-2.65,2.08-3.92,3.17-5.16,4.47-8.39,10.33-11.31,16.33-3.56,7.29-6.9,14.68-10.19,22.1a47.29,47.29,0,0,1-20.81,22.58c-9.36,5.25-19.44,7.76-29.94,8.9-4.48.48-9,.62-13.54,1,3.63.57,7.25,1.35,10.9,1.67,8,.71,15.93,1.59,23.9,1.66,16.23.14,31.79-3,46.09-11.11a1.48,1.48,0,0,1,1-.19,12.74,12.74,0,0,1-.78,1.14,60.26,60.26,0,0,1-24.92,17.51c-11.21,4.38-22.89,6.13-34.85,6.41-15.18.36-30.05-1.93-44.78-5.26-12.72-2.88-25.38-6-38.11-8.83-11.1-2.45-22.29-4.44-33.69-4.78-12.84-.39-25.22,1.47-36.57,8a8.47,8.47,0,0,1-.87.38l-.3-.37c1.49-1.47,2.92-3,4.48-4.39,8-7.08,17.49-11,27.87-12.95a104.38,104.38,0,0,1,30.13-1.35c10.25,1,20.44,2.72,30.63,4.31,4.74.74,9.42,1.93,14.13,2.91a13.31,13.31,0,0,0,1.36.11c-2.33-1.88-4.3-3.45-6.25-5-11.47-9.41-21.55-20.07-29.29-32.79A90.17,90.17,0,0,1,481.06,403c-.64-18.15,3.6-35.24,11.33-51.48,14.21-29.84,36-53.05,63.33-71.26,1.57-1,3.2-1.74,5-.77s2.21,2.74,2.28,4.71a86.19,86.19,0,0,0,6.51,29.4c5,12.23,10.4,24.28,15.68,36.38,4.23,9.67,8.37,19.39,10.65,29.74,1.11,5.07,1.64,10.28,2.35,15.44a2.92,2.92,0,0,1-.46,2c-4.74,6.29-9.53,12.53-14.48,18.7A52.63,52.63,0,0,0,585,399.06a62.64,62.64,0,0,0-4.5-21c-4.27-10.71-9-21.24-13.55-31.82-4.25-9.87-8.27-19.8-9.7-30.55-.26-1.9-.42-3.81-.5-5.71-.07-1.6-.38-3-1.88-3.85s-2.88-.32-4.2.52a145.71,145.71,0,0,0-23,18.46,138.69,138.69,0,0,0-25.5,33.52A99.94,99.94,0,0,0,491,390.32c-3.76,23.59,2.49,44.41,17.69,62.67,5.32,6.41,11.49,11.93,17.8,17.33,2.83,2.42,5,5.63,7.48,8.44,2,2.29,4.12,4.56,6.26,6.76a4.65,4.65,0,0,0,1.94.91c8.81,2.83,16.93,1,24.87-3.31,9-4.91,15.71-12.12,21.9-20,6-7.71,11.92-15.59,18.55-22.77,4.39-4.77,10-8.44,15-12.6l1.91-1.62Z" transform="translate(-82.15 -279.01)"/><path class="cls-1" d="M539.77,474.19c-4-3.79-6-8.55-7.47-13.6-2.85-10.11-2.72-20.38-1.56-30.7,1.53-13.61,5.36-26.66,9.61-39.62,2.89-8.83,5.16-17.82,5.78-27.13a65.93,65.93,0,0,0-4.77-29.77c-1.31-3.22-2.79-6.36-4.43-10.08,2,1.25,3.66,2.16,5.17,3.3,6.55,5,10.52,11.79,13.17,19.42a76.31,76.31,0,0,1,4,24.78,86.37,86.37,0,0,1-6.18,32.58q-6.23,15.66-11.81,31.56a71.4,71.4,0,0,0-4,23.56,49.27,49.27,0,0,0,2.11,14.4C539.55,473.32,539.66,473.75,539.77,474.19Z" transform="translate(-82.15 -279.01)"/><path class="cls-1" d="M632.45,500.89c-57.2,44.61-135.59,45.6-189.9.29a8.79,8.79,0,0,1,1.34.34,262,262,0,0,0,43.13,16,188.34,188.34,0,0,0,42.7,6.43,195,195,0,0,0,54.22-6.22,284.49,284.49,0,0,0,34.64-11.37c4.15-1.64,8.28-3.32,12.42-5C631.47,501.16,632,501,632.45,500.89Z" transform="translate(-82.15 -279.01)"/><path class="cls-1" d="M607.17,486.2c3.27-1.27,7-2.47,10.54-4.14a99.18,99.18,0,0,0,22.91-14.65,27.81,27.81,0,0,1,6.54-3.74,24.25,24.25,0,0,1-6.22,8.86c-5.91,5.41-13,8.69-20.57,10.82-4.12,1.15-8.34,1.92-12.52,2.84A1.6,1.6,0,0,1,607.17,486.2Z" transform="translate(-82.15 -279.01)"/><path class="cls-1" d="M108.34,609.24l-4.85-11.08-2.22,11.08-7.2,36.58H82.15l16.21-78.29h1.25l21.62,42.27,6.37,14.13L134,609.8,155,567.53h1.24l16.77,78.29H161.41l-7.9-36.58-2.35-11.08-4.3,11.08-19,36.58h-.7Z" transform="translate(-82.15 -279.01)"/><path class="cls-1" d="M216,646.93c-9.91,0-17-2.94-21.48-8.87S188,623.62,188,612.43v-44.9h11.92v45q0,12.46,3.74,17.87c2.49,3.6,6.58,5.41,12.33,5.41s9.63-1.74,12.06-5.27,3.74-9.49,3.74-18v-45h12.05v44.9q0,16.62-7.06,25.63C232.15,644,225.23,646.93,216,646.93Z" transform="translate(-82.15 -279.01)"/><path class="cls-1" d="M264.89,567.53H277v67.62H299.4v10.67H264.89Z" transform="translate(-82.15 -279.01)"/><path class="cls-1" d="M317.66,567.53h11.92v78.29H317.66Z" transform="translate(-82.15 -279.01)"/><path class="cls-1" d="M364.59,595.11l.28,8.45v42.26H353V567.39h1.53l46,51.41-.41-9V567.53H412v78.29h-1.66Z" transform="translate(-82.15 -279.01)"/><path class="cls-1" d="M470.56,646.93a40.72,40.72,0,0,1-20.79-5.26A39.15,39.15,0,0,1,435.36,627a43.17,43.17,0,0,1-5.13-21.06,40.13,40.13,0,0,1,5.13-20.24,37.24,37.24,0,0,1,14.55-14.27,42.79,42.79,0,0,1,20.92-5.13,53.2,53.2,0,0,1,11.23,1.11,41.68,41.68,0,0,1,8.31,2.64,15.61,15.61,0,0,1,4.44,2.49l-4.72,10c-4.36-3.5-10.8-5.27-19.4-5.27a28.94,28.94,0,0,0-15,3.74,25.35,25.35,0,0,0-9.56,10.12A31.18,31.18,0,0,0,443,605.36a35.45,35.45,0,0,0,3.47,15.94,26.33,26.33,0,0,0,10,10.94,26.74,26.74,0,0,0,14.27,3.88,36.29,36.29,0,0,0,9.57-1.24,20.76,20.76,0,0,0,7.89-3.88V615.89H472.08V605h27.85v30.62c-2.6,3.26-6.48,6-11.64,8.17A45.87,45.87,0,0,1,470.56,646.93Z" transform="translate(-82.15 -279.01)"/><path class="cls-1" d="M547.3,567.39,585,645.82H571.28l-6.79-15.38H528.6l-6.66,15.38h-13.3l37.42-78.43Zm-5.4,33.4-8.45,19h26.46l-8.45-19-4.57-10.67h-.28Z" transform="translate(-82.15 -279.01)"/><path class="cls-1" d="M657.7,646.58c-8.36,0-15.64-1.84-21.79-5.61a39.38,39.38,0,0,1-14.23-15.1A45.77,45.77,0,0,1,616.93,605a44.45,44.45,0,0,1,5.18-21.57A38.71,38.71,0,0,1,637,568.49a43.1,43.1,0,0,1,21.57-5.39,38.81,38.81,0,0,1,10.14,1.29,41.14,41.14,0,0,1,7.77,2.59,15,15,0,0,1,4.09,2.37l-5.39,11c-4.47-3.89-10.35-5.83-17.69-5.83a25.6,25.6,0,0,0-13.8,3.88A24.63,24.63,0,0,0,634,589a35.72,35.72,0,0,0-3.45,16.18,37.18,37.18,0,0,0,3,15.32,26.55,26.55,0,0,0,9.28,10.78,26,26,0,0,0,14.45,3.88,37.23,37.23,0,0,0,19-5.39l3.45,10.35c-1.62,1.62-4.53,3.13-8.84,4.53A45.6,45.6,0,0,1,657.7,646.58Z" transform="translate(-82.15 -279.01)"/><path class="cls-1" d="M741,646.79a42,42,0,0,1-20.49-5.18A38.88,38.88,0,0,1,705.59,627c-3.61-6.31-5.39-13.65-5.39-22s1.78-15.86,5.39-22.22a37.91,37.91,0,0,1,14.89-14.45A42,42,0,0,1,741,563.1a41.38,41.38,0,0,1,20.49,5.18,38.55,38.55,0,0,1,14.88,14.45A43.17,43.17,0,0,1,782,605a42.54,42.54,0,0,1-5.61,22,39.55,39.55,0,0,1-14.88,14.66A41.38,41.38,0,0,1,741,646.79Zm0-11.21a28.43,28.43,0,0,0,14-3.46,26.09,26.09,0,0,0,9.92-10.57c2.59-4.58,3.88-10.13,3.88-16.6a33.42,33.42,0,0,0-3.88-16.61A25.21,25.21,0,0,0,755,578a28.68,28.68,0,0,0-28,0A24.48,24.48,0,0,0,717,588.34c-2.49,4.63-3.67,10.13-3.67,16.61s1.18,12,3.67,16.6a26.9,26.9,0,0,0,10.13,10.57A28.67,28.67,0,0,0,741,635.58Z" transform="translate(-82.15 -279.01)"/><path class="cls-1" d="M806.73,564.39h38v10.79H818.81V598h20.27v11H818.81v36.67H806.73Z" transform="translate(-82.15 -279.01)"/><path class="cls-1" d="M869.44,564.39h38v10.79H881.52V598h20.27v11H881.52v36.67H869.44Z" transform="translate(-82.15 -279.01)"/><path class="cls-1" d="M932.15,564.39h35.59v10.79H944.22v22.43h19v11.22h-19v25.88H971.4v11H932.15Z" transform="translate(-82.15 -279.01)"/><path class="cls-1" d="M994.85,564.39h35.59v10.79h-23.51v22.43h19v11.22h-19v25.88h27.18v11H994.85Z" transform="translate(-82.15 -279.01)"/></svg>